<svg width="80" height="80" viewBox="0 0 80 80" fill="none" xmlns="http://www.w3.org/2000/svg">
<g clip-path="url(#clip0_1843_20)">
<path d="M3.2822 80.0001C2.72827 79.7223 2.12399 79.5203 1.63721 79.1499C-0.26795 77.7272 -0.544912 75.0333 0.990967 73.2065C1.22596 72.9287 1.49453 72.6761 1.74632 72.4152C12.3128 61.8501 22.8793 51.285 33.4459 40.7283C33.6641 40.5094 33.941 40.3495 34.1844 40.1559C34.2264 40.038 34.26 39.9117 34.3019 39.7939C34.0166 39.6171 33.6725 39.4908 33.4375 39.2635C22.7786 28.6227 12.1282 17.9566 1.46096 7.3073C0.269188 6.11189 -0.293128 4.74811 0.151689 3.07285C0.932218 0.12641 4.51594 -0.984818 6.82395 1.00192C7.08413 1.2208 7.31073 1.47335 7.55412 1.70907C18.1374 12.291 28.7291 22.8729 39.304 33.4548C39.5222 33.6737 39.6985 33.9263 40.0929 34.4061C40.3615 33.9936 40.4958 33.6905 40.714 33.4717C51.3644 22.8056 62.0233 12.1563 72.6821 1.49861C74.7299 -0.547062 77.6003 -0.488133 79.1949 1.65014C79.5306 2.09631 79.7404 2.63509 80.0006 3.13178V5.00908C79.6565 6.13714 78.9096 6.97898 78.0871 7.79557C67.5625 18.2933 57.0547 28.8079 46.547 39.314C46.3288 39.5329 46.1273 39.7518 45.8252 40.0717C46.1022 40.3074 46.354 40.4926 46.5722 40.7115C56.9037 51.0324 67.2268 61.3618 77.5583 71.6828C78.5067 72.634 79.5054 73.5348 80.0006 74.8312V76.8601C79.4131 78.4343 78.3472 79.5035 76.719 79.9833H74.9985C73.79 79.554 72.8919 78.7205 72.0107 77.8282C61.5869 67.381 51.1462 56.9506 40.7056 46.5202C40.4874 46.3013 40.2692 46.0993 40.0174 45.8635C39.774 46.0993 39.5642 46.2929 39.3628 46.4865C28.9054 56.9422 18.448 67.3894 7.99894 77.8534C7.1093 78.7458 6.22806 79.5961 4.99432 79.9833H3.2738L3.2822 80.0001Z" fill="#257341"/>
</g>
<defs>
<clipPath id="clip0_1843_20">
<rect width="80" height="80" fill="white"/>
</clipPath>
</defs>
</svg>
