<svg width="110" height="110" viewBox="0 0 110 110" fill="none" xmlns="http://www.w3.org/2000/svg">
<g clip-path="url(#clip0_1833_20)">
<path opacity="0.6" fill-rule="evenodd" clip-rule="evenodd" d="M54.9995 0C85.3755 0 110 24.624 110 54.9995C110 85.376 85.3755 110 54.9995 110C24.6245 110 0 85.376 0 54.9995C0 24.624 24.6245 0 54.9995 0Z" fill="#035909"/>
<path d="M59.2477 55.0582C59.2477 61.7476 59.2445 68.4385 59.2477 75.1279C59.2477 76.1439 59.2461 77.176 58.185 77.7276C57.1271 78.2791 56.1487 77.9146 55.219 77.3212C50.9924 74.6199 46.7691 71.9155 42.5279 69.2401C42.1449 68.9981 41.6387 68.8482 41.1844 68.8385C39.1579 68.795 37.1298 68.8272 35.1033 68.8175C31.026 68.7982 28.0211 65.8341 28.0097 61.804C27.9968 57.2627 27.9968 52.723 28.0097 48.1817C28.0227 44.2242 30.9968 41.252 34.9703 41.2182C37.0243 41.2004 39.08 41.2375 41.1325 41.1956C41.5852 41.1859 42.093 41.0392 42.4759 40.7989C46.6961 38.1396 50.8951 35.448 55.1006 32.7645C55.305 32.6339 55.5046 32.492 55.7188 32.3807C57.5765 31.4179 59.2185 32.3533 59.2396 34.4256C59.2704 37.2994 59.2477 40.1748 59.2477 43.0502C59.2477 47.0528 59.2477 51.0571 59.2477 55.0598V55.0582Z" fill="white"/>
<path d="M74.9562 55.9923L80.9584 50.156C81.3089 49.8057 81.5034 49.3353 81.5 48.8466C81.4965 48.3579 81.2953 47.8902 80.9399 47.5446C80.5845 47.1991 80.1035 47.0034 79.6009 47C79.0983 46.9967 78.6145 47.1858 78.2543 47.5266L72.248 53.3744L66.2458 47.5381C65.8855 47.1974 65.4017 47.0082 64.8991 47.0116C64.3965 47.015 63.9155 47.2106 63.5601 47.5562C63.2047 47.9017 63.0035 48.3695 63 48.8582C62.9966 49.3469 63.1911 49.8172 63.5416 50.1676L69.5438 55.9923L63.5416 61.844C63.1911 62.1943 62.9966 62.6647 63 63.1534C63.0035 63.6421 63.2047 64.1098 63.5601 64.4554C63.9155 64.801 64.3965 64.9966 64.8991 65C65.4017 65.0033 65.8855 64.8142 66.2458 64.4734L72.248 58.6371L78.2543 64.4619C78.6145 64.8026 79.0983 64.9918 79.6009 64.9884C80.1035 64.985 80.5845 64.7894 80.9399 64.4438C81.2953 64.0983 81.4965 63.6305 81.5 63.1418C81.5034 62.6531 81.3089 62.1828 80.9584 61.8325L74.9562 55.9923Z" fill="white"/>
</g>
<defs>
<clipPath id="clip0_1833_20">
<rect width="110" height="110" fill="white"/>
</clipPath>
</defs>
</svg>
