<svg width="110" height="110" viewBox="0 0 110 110" fill="none" xmlns="http://www.w3.org/2000/svg">
<g clip-path="url(#clip0_1833_8)">
<path opacity="0.6" fill-rule="evenodd" clip-rule="evenodd" d="M54.9995 0C85.3755 0 110 24.624 110 54.9995C110 85.376 85.3755 110 54.9995 110C24.6245 110 0 85.376 0 54.9995C0 24.624 24.6245 0 54.9995 0Z" fill="#035909"/>
<path d="M59.2477 55.0582C59.2477 61.7476 59.2445 68.4385 59.2477 75.1279C59.2477 76.1439 59.2461 77.176 58.185 77.7276C57.1271 78.2791 56.1487 77.9146 55.219 77.3212C50.9924 74.6199 46.7691 71.9155 42.5279 69.2401C42.1449 68.9981 41.6387 68.8482 41.1844 68.8385C39.1579 68.795 37.1298 68.8272 35.1033 68.8175C31.026 68.7982 28.0211 65.8341 28.0097 61.804C27.9968 57.2627 27.9968 52.723 28.0097 48.1817C28.0227 44.2242 30.9968 41.252 34.9703 41.2182C37.0243 41.2004 39.08 41.2375 41.1325 41.1956C41.5852 41.1859 42.093 41.0392 42.4759 40.7989C46.6961 38.1396 50.8951 35.448 55.1006 32.7645C55.305 32.6339 55.5046 32.492 55.7188 32.3807C57.5765 31.4179 59.2185 32.3533 59.2396 34.4256C59.2704 37.2994 59.2477 40.1748 59.2477 43.0502C59.2477 47.0528 59.2477 51.0571 59.2477 55.0598V55.0582Z" fill="white"/>
<path d="M81.9983 54.9852C81.9983 65.7304 74.7912 73.1068 74.285 73.5471C73.55 74.1905 72.5067 74.1212 71.8723 73.4503C71.2363 72.7746 71.2314 71.7538 71.9129 71.0474C76.6765 66.103 78.6868 60.149 78.2779 53.3983C77.9469 47.9378 75.9156 43.1352 72.0832 39.1438C71.2557 38.2827 71.1714 37.3183 71.882 36.57C72.5943 35.8217 73.6927 35.8346 74.5348 36.6877C77.8528 40.0485 81.9983 46.7476 81.9983 54.9868V54.9852Z" fill="white"/>
<path d="M71.4494 55.0163C71.4056 58.6819 70.4922 62.0862 68.5014 65.181C68.2109 65.6309 67.8848 66.0679 67.5214 66.4614C66.8221 67.2178 65.7853 67.2823 65.0536 66.6582C64.3656 66.0696 64.2504 65.0229 64.8686 64.2601C66.2023 62.6152 67.0687 60.7493 67.5003 58.7028C68.4835 54.0406 67.8491 49.6799 64.8946 45.7934C64.2666 44.9661 64.3494 43.9581 65.0844 43.3389C65.8388 42.7035 66.9065 42.7922 67.6009 43.6308C69.6095 46.0595 70.7063 48.8913 71.1736 51.9715C71.3261 52.9778 71.3602 54.0003 71.4494 55.0163Z" fill="white"/>
</g>
<defs>
<clipPath id="clip0_1833_8">
<rect width="110" height="110" fill="white"/>
</clipPath>
</defs>
</svg>
